:SAMPLES-PER-SECOND 30
:FRAME-RANGE 1-2009
:FULLY-SPECIFIED
:DEGREES
1696
root  -68.3418 38.2574 -75.0288 -178.208 11.3191 -179.675
RightUpLeg  -23.4736 0.851338 3.96158
RightLeg  11.3898 -18.0677 -1.46578
RightFoot  1.93603 0.486516 -4.06216
RightToes  2.96424e-010 1.2921e-014 -6.02303e-014
Spine  -8.00312 -4.60845 1.6309
Spine1  9.56596 -5.72161 2.785
HEad  24.9642 -18.4052 2.43089
LeftShoulder1  1.0092 -0.453389 -20.6751
LeftArm  6.35572 -5.09665 -52.4005
LeftForeArm  22.7961 -13.5192 -9.10486
LeftHand  -0.0478188 7.98089 -0.178472
RightShoulder  0.208298 -2.71089 27.9912
RightArm  -34.9415 -17.4749 40.9211
RightForeArm  73.7873 -4.22709 -1.94351
RightHand  0.386859 -8.55905 -14.9816
LeftUpLeg  9.09922 -0.635048 0.807274
LeftLeg  28.9726 -8.899 -4.96329
LeftFoot  -11.5859 0.0498267 -9.09899
LeftToes  -1.2485e-010 1.20979e-011 -1.0929e-011
1697
root  -67.7846 38.2662 -76.4065 -177.469 12.4376 -177.728
RightUpLeg  -22.9238 -0.677955 6.50177
RightLeg  14.0401 -15.9379 -0.52549
RightFoot  1.46925 0.551541 -4.8174
RightToes  2.96424e-010 1.2921e-014 -6.02303e-014
Spine  -8.10639 -4.23621 4.39108
Spine1  9.58839 -5.4358 3.29195
HEad  26.0556 -17.8059 0.656782
LeftShoulder1  0.899171 -0.087934 -20.2975
LeftArm  4.44008 -2.81288 -54.0043
LeftForeArm  24.5981 -12.2215 -9.63997
LeftHand  -0.0321339 5.17327 4.75721
RightShoulder  0.339268 -2.32523 28.0324
RightArm  -33.9624 -14.6013 40.9848
RightForeArm  72.76 -4.36156 -1.40481
RightHand  0.361684 -8.40515 -14.7811
LeftUpLeg  4.09996 1.15162 4.70318
LeftLeg  40.1665 -10.0483 -8.60937
LeftFoot  -3.32119 1.07105 -14.9257
LeftToes  -1.2485e-010 1.20979e-011 -1.0929e-011
1698
root  -67.2185 38.2713 -77.6675 -177.533 13.3357 -176.641
RightUpLeg  -21.8745 0.666824 8.44158
RightLeg  16.9772 -16.0548 -1.98547
RightFoot  0.0955319 0.64979 -6.47
RightToes  2.96424e-010 1.2921e-014 -6.02303e-014
Spine  -7.16366 -4.14523 5.28816
Spine1  9.4033 -5.43558 4.61528
HEad  26.4732 -17.5734 0.564806
LeftShoulder1  0.875565 -0.00624054 -20.2337
LeftArm  3.08085 -0.658274 -54.5637
LeftForeArm  27.2651 -10.5927 -10.3194
LeftHand  -0.027887 5.29371 4.14817
RightShoulder  0.490598 -1.88034 28.0736
RightArm  -32.1914 -11.3039 41.6898
RightForeArm  70.8424 -4.631 -0.279659
RightHand  0.302848 -7.95402 -14.6842
LeftUpLeg  -1.61077 0.550308 6.54031
LeftLeg  50.8542 -8.24608 -10.2868
LeftFoot  7.93339 3.11604 -18.4984
LeftToes  -1.2485e-010 1.20979e-011 -1.0929e-011
1699
root  -66.6647 38.289 -78.9017 -177.775 14.8396 -175.994
RightUpLeg  -19.8614 -0.124789 9.55478
RightLeg  18.5208 -14.0147 -0.897165
RightFoot  -2.7144 0.57121 -7.79731
RightToes  2.96424e-010 1.2921e-014 -6.02303e-014
Spine  -6.33735 -4.0398 6.49921
Spine1  9.27039 -5.0403 4.52497
HEad  26.8406 -17.5197 1.37235
LeftShoulder1  0.791838 0.327878 -20.3979
LeftArm  2.63117 1.20204 -54.1214
LeftForeArm  30.0191 -8.55637 -11.2041
LeftHand  -0.0163597 5.60704 4.7768
RightShoulder  0.536582 -1.77757 28.8376
RightArm  -29.6586 -6.8351 42.611
RightForeArm  68.0434 -4.99746 1.23694
RightHand  0.520941 -9.32989 -15.9723
LeftUpLeg  -7.0486 -0.431584 7.31144
LeftLeg  58.7957 -5.96768 -10.0109
LeftFoot  17.5219 4.87968 -19.2334
LeftToes  -1.2485e-010 1.20979e-011 -1.0929e-011
1700
root  -66.0931 38.3631 -80.1659 -177.932 17.5332 -175.837
RightUpLeg  -17.4755 -0.434845 10.4842
RightLeg  19.3507 -11.347 -0.242042
RightFoot  -5.17019 0.422753 -8.4668
RightToes  2.96424e-010 1.2921e-014 -6.02303e-014
Spine  -6.32981 -3.59324 7.57744
Spine1  9.50087 -4.15924 3.53164
HEad  27.691 -17.1079 1.69213
LeftShoulder1  0.752988 0.472335 -20.3808
LeftArm  0.859257 3.30828 -53.4101
LeftForeArm  34.4398 -5.79056 -11.9094
LeftHand  -0.0108685 5.94047 3.64537
RightShoulder  0.741198 -1.17103 28.5645
RightArm  -27.1511 -2.75213 44.946
RightForeArm  67.5192 -5.2596 2.67384
RightHand  0.199688 -6.95045 -16.1345
LeftUpLeg  -11.5864 -0.226629 7.70373
LeftLeg  64.6838 -4.02815 -8.61175
LeftFoot  12.2594 3.62035 -17.5743
LeftToes  -1.2485e-010 1.20979e-011 -1.0929e-011
1701
root  -65.4626 38.4869 -81.4401 -178.607 20.7443 -176.53
RightUpLeg  -14.5465 -1.02311 10.7896
RightLeg  19.8427 -7.81747 0.10057
RightFoot  -7.39244 0.263668 -9.06675
RightToes  2.96424e-010 1.2921e-014 -6.02303e-014
Spine  -5.89146 -3.19515 7.40576
Spine1  9.06617 -3.37344 2.57647
HEad  28.5874 -16.3887 1.61444
LeftShoulder1  0.676724 0.767654 -20.4737
LeftArm  -0.709012 6.09289 -52.4563
LeftForeArm  37.126 -2.96218 -12.3321
LeftHand  -0.0029883 6.23209 3.66502
RightShoulder  0.908119 -0.626537 27.7773
RightArm  -24.4195 0.698398 48.0263
RightForeArm  66.2096 -5.54285 4.07818
RightHand  0.274032 -7.30047 -17.5891
LeftUpLeg  -15.1538 -0.540618 6.97354
LeftLeg  67.1453 -2.18321 -4.98336
LeftFoot  6.91477 2.11229 -13.3604
LeftToes  -1.2485e-010 1.20979e-011 -1.0929e-011
1702
root  -64.8287 38.5467 -82.737 -179.387 23.6981 -177.318
RightUpLeg  -11.7078 -1.52676 10.6986
RightLeg  20.5123 -4.85815 0.328397
RightFoot  -9.2721 0.100318 -8.98847
RightToes  2.96424e-010 1.2921e-014 -6.02303e-014
Spine  -5.68915 -2.99497 7.24293
Spine1  8.69451 -2.86911 1.69833
HEad  29.3215 -15.5909 1.04483
LeftShoulder1  0.668701 0.838524 -20.9447
LeftArm  -1.14355 9.08739 -50.951
LeftForeArm  37.7296 -0.283764 -12.7322
LeftHand  -0.000936784 6.42781 3.35237
RightShoulder  0.980586 -0.355511 27.1189
RightArm  -20.9426 4.00035 50.9929
RightForeArm  64.6331 -5.19426 5.66561
RightHand  0.264225 -7.17904 -18.0863
LeftUpLeg  -18.3109 -1.67275 6.32274
LeftLeg  66.9325 -0.43932 -0.417078
LeftFoot  4.44221 1.4214 -10.4281
LeftToes  -1.2485e-010 1.20979e-011 -1.0929e-011
1703
root  -64.1874 38.6192 -84.0226 179.932 26.9061 -178.059
RightUpLeg  -8.90541 -1.99014 10.3859
RightLeg  21.2392 -1.64661 0.675987
RightFoot  -11.1337 -0.0575139 -9.60982
RightToes  2.96424e-010 1.2921e-014 -6.02303e-014
Spine  -5.62187 -2.67842 7.17401
Spine1  8.45839 -2.33321 0.77692
HEad  29.1638 -14.7876 0.714158
LeftShoulder1  0.597405 1.14257 -21.4924
LeftArm  -1.87453 12.0248 -49.6042
LeftForeArm  38.348 2.19304 -12.8368
LeftHand  0.00172543 6.65291 3.12675
RightShoulder  1.03413 -0.136076 26.4985
RightArm  -16.7462 7.25028 53.5598
RightForeArm  62.7781 0.268875 8.11757
RightHand  0.204903 -6.74844 -18.6369
LeftUpLeg  -20.8347 -2.77559 5.88067
LeftLeg  63.9808 1.13896 3.18957
LeftFoot  1.9271 0.786252 -6.85626
LeftToes  -1.2485e-010 1.20979e-011 -1.0929e-011
1704
root  -63.5369 38.6562 -85.2769 179.399 30.6096 -178.922
RightUpLeg  -6.11098 -1.76627 9.77089
RightLeg  21.3384 1.34837 1.06644
RightFoot  -12.775 -0.209878 -9.86741
RightToes  2.96424e-010 1.2921e-014 -6.02303e-014
Spine  -5.7834 -2.20237 6.99114
Spine1  8.07843 -1.73624 -0.263757
HEad  28.7551 -13.9854 0.102082
LeftShoulder1  0.533952 1.41732 -22.1928
LeftArm  -2.74772 15.2339 -48.3099
LeftForeArm  38.6326 4.3504 -12.716
LeftHand  0.00599551 6.92163 3.01384
RightShoulder  1.18309 0.424052 25.59
RightArm  -12.8663 10.249 56.2041
RightForeArm  60.6826 5.15881 9.89671
RightHand  0.100516 -6.09864 -18.5321
LeftUpLeg  -22.7752 -3.30868 5.53921
LeftLeg  58.7677 3.21588 6.25155
LeftFoot  -1.44333 0.454378 -5.14631
LeftToes  -1.2485e-010 1.20979e-011 -1.0929e-011
1705
root  -62.8488 38.7146 -86.4987 178.865 34.1294 -179.987
RightUpLeg  -3.30742 -1.6135 8.63958
RightLeg  20.8785 4.36849 1.77677
RightFoot  -13.9842 -0.332359 -10.2907
RightToes  2.96424e-010 1.2921e-014 -6.02303e-014
Spine  -6.19908 -1.88555 6.17925
Spine1  8.02773 -1.38829 -1.10808
HEad  28.1089 -13.2046 -0.29697
LeftShoulder1  0.391608 1.9323 -22.4509
LeftArm  -4.3371 18.5626 -47.6934
LeftForeArm  39.2826 6.04878 -12.2546
LeftHand  0.00720762 7.21931 2.71968
RightShoulder  1.21815 0.602439 25.0213
RightArm  -5.09996 13.6472 59.1061
RightForeArm  54.8769 9.48902 10.2917
RightHand  0.0866148 -6.02464 -18.2025
LeftUpLeg  -23.9196 -4.35989 5.1665
LeftLeg  50.9406 5.78778 8.0353
LeftFoot  -3.37921 0.288684 -3.85628
LeftToes  -1.2485e-010 1.20979e-011 -1.0929e-011
1706
root  -62.1403 38.7295 -87.6599 178.524 37.2545 178.887
RightUpLeg  -1.10137 -0.589807 7.54173
RightLeg  20.5256 6.23883 2.10155
RightFoot  -15.2201 -0.503868 -11.8036
RightToes  2.96424e-010 1.2921e-014 -6.02303e-014
Spine  -6.65784 -1.6572 4.96786
Spine1  7.80748 -1.21105 -1.7001
HEad  27.5193 -13.2285 -0.547604
LeftShoulder1  0.28679 2.3131 -22.8647
LeftArm  -5.74719 21.625 -46.9697
LeftForeArm  40.1438 7.37009 -11.7753
LeftHand  -0.0106424 6.99819 1.8128
RightShoulder  1.25323 0.803118 24.3271
RightArm  2.21636 16.3865 62.1485
RightForeArm  49.236 12.8216 9.49586
RightHand  0.0771615 -5.98124 -17.7716
LeftUpLeg  -24.535 -6.15041 5.16374
LeftLeg  40.6353 7.68156 7.37917
LeftFoot  -3.01345 0.314769 -4.07474
LeftToes  -1.2485e-010 1.20979e-011 -1.0929e-011
1707
root  -61.3849 38.7544 -88.8067 178.373 39.866 177.902
RightUpLeg  1.09945 0.727514 6.47436
RightLeg  19.9597 7.50087 2.37959
RightFoot  -16.1114 -0.601887 -11.7957
RightToes  2.96424e-010 1.2921e-014 -6.02303e-014
Spine  -7.6542 -1.41979 3.89628
Spine1  7.94544 -0.984266 -2.27147
HEad  27.031 -14.5229 -1.34409
LeftShoulder1  0.371302 2.04669 -23.4875
LeftArm  -6.54617 25.9046 -45.9184
LeftForeArm  40.6233 5.77171 -11.3792
LeftHand  -0.0251201 7.66692 0.7945
RightShoulder  1.27984 0.986374 23.6142
RightArm  7.83357 18.156 64.6217
RightForeArm  44.7453 15.2507 8.3892
RightHand  0.11823 -6.26374 -17.5715
LeftUpLeg  -24.2913 -8.53338 5.70224
LeftLeg  28.2371 8.98269 5.52603
LeftFoot  -0.905459 0.531624 -5.76012
LeftToes  -1.2485e-010 1.20979e-011 -1.0929e-011
